<svg  viewBox="0 0 497 407" fill="none" xmlns="http://www.w3.org/2000/svg">
<path d="M460.17 219.428C453.475 208.285 438.72 200.234 422.863 209.763C418.541 212.361 414.916 216.805 412.797 222.134L392.751 188.775C390.175 184.489 382.715 183.723 378.429 186.298L275.572 248.107C271.286 250.682 269.833 257.972 271.893 261.4L291.94 294.76C286.175 293.984 282.692 294.582 276.291 297.841C263.005 305.825 258.814 321.176 267.055 334.891C280.19 356.748 304.363 344.555 304.363 344.555C309.738 340.619 312.068 337.943 314.216 331.831L334.475 365.544C336.535 368.972 344.768 371.025 348.197 368.964L451.054 307.155C455.34 304.58 457.65 296.775 455.332 292.918L435.074 259.206C440.328 259.97 445.871 259.302 450.935 256.478C463.106 248.581 467.382 231.428 460.17 219.428Z" fill="#FFCA0D"/>
<path d="M0 313.5V406.5H106.5V313.5H0Z" fill="#FFCA0D"/>
<path d="M0 313.5H106.5L164 256H57.5L0 313.5Z" fill="#00A0BD"/>
<path d="M106.5 313.5V406.5L164 349V256L106.5 313.5Z" fill="#EF513E"/>
<ellipse cx="222" cy="191" rx="158" ry="157" fill="#87694B"/>
<ellipse cx="82" cy="80.5" rx="79" ry="80.5" fill="#221E1A"/>
<ellipse cx="359" cy="80.5" rx="79" ry="80.5" fill="#221E1A"/>
<path d="M137 161C137 124 178.5 127 178.5 161" stroke="#483829"/>
<path d="M263 161C263 124 304.5 127 304.5 161" stroke="#483829"/>
<path d="M198 222L219.5 239.5L242.5 222" stroke="#483829" stroke-width="11" stroke-linecap="round"/>
<path d="M187.5 289.5C151.5 289.5 151.5 197 187.5 197H251.5C290.5 197 289.5 289.5 251.5 289.5H187.5Z" stroke="#483829" stroke-width="11" stroke-linecap="round"/>
</svg>
