<svg viewBox="0 0 402 402" fill="none" xmlns="http://www.w3.org/2000/svg">
<path d="M191.141 0.0811066C190.293 0.143889 187.531 0.332236 185.02 0.520583C147.852 3.25162 110.528 17.2521 80.644 39.7282C40.4946 69.8951 13.0901 113.372 3.60999 161.871C0.910344 175.683 0 185.634 0 200.796C0 213.416 0.345303 218.658 1.88347 229.362C7.40832 267.942 23.7003 303.383 49.5353 333.11C53.4278 337.568 63.0021 347.205 67.6166 351.254C86.5141 367.892 107.64 380.542 131.121 389.269C147.507 395.328 164.427 399.157 183.293 400.978C191.235 401.731 210.195 401.731 218.137 400.978C236.941 399.157 253.986 395.328 270.309 389.269C278.095 386.381 281.548 384.874 290.023 380.668C335.07 358.38 370.228 319.8 388.278 272.839C399.767 242.986 403.942 210.371 400.332 178.352C393.708 119.399 361.783 67.0385 311.997 33.4813C303.239 27.5798 287.951 19.3867 278.095 15.3372C258.192 7.17551 239.923 2.68657 218.294 0.646148C213.743 0.206671 194.625 -0.170023 191.141 0.0811066ZM217.384 11.9784C256.623 15.4942 292.848 30.6247 323.141 56.083C328.603 60.6661 340.845 72.9087 345.429 78.3707C380.65 120.278 396.031 174.051 388.246 228.107C383.224 263.076 368.752 295.284 345.554 323.065C339.088 330.787 327.724 341.868 319.217 348.712C293.099 369.744 261.237 383.587 227.994 388.359C217.823 389.803 212.33 390.179 200.715 390.179C189.069 390.211 183.325 389.803 173.248 388.327C123.587 381.045 79.2627 354.645 48.9389 314.275C32.8666 292.867 21.5344 268.256 15.6642 241.95C12.5565 227.918 11.3322 216.429 11.3008 200.953C11.3008 185.446 12.5251 173.674 15.6642 159.642C22.3191 129.821 35.5976 102.919 55.4996 78.9985C60.1769 73.3481 72.6392 60.823 78.2582 56.1144C102.21 35.9926 129.551 22.4316 159.561 15.7453C170.391 13.3596 179.463 12.1667 192.71 11.3819C196.666 11.1308 212.393 11.5075 217.384 11.9784Z" fill="black"/>
<path d="M187.374 16.8753C147.037 20.0458 111.219 34.8311 80.4558 61.0113C75.9041 64.8724 64.8858 75.8907 60.9305 80.5366C35.127 110.798 20.0906 146.866 16.9201 186.137C16.2923 193.796 16.2923 207.796 16.9201 215.456C20.122 254.977 35.3467 291.266 61.4642 321.652C65.3567 326.204 75.7786 336.563 80.3303 340.456C108.206 364.282 141.009 378.941 177.015 383.65C191.486 385.533 209.944 385.533 224.416 383.65C253.829 379.789 281.924 368.99 305.719 352.353C351.519 320.334 380.053 270.767 384.511 215.456C385.107 207.796 385.107 193.796 384.511 186.137C381.591 150.194 368.407 116.071 346.559 87.9763C339.716 79.1868 328.666 67.5407 320.975 61.0113C290.023 34.7055 254.112 19.9202 213.617 16.8439C208.783 16.4986 192.083 16.4986 187.374 16.8753ZM210.29 18.4135C243.031 20.2028 273.731 30.2479 300.853 48.0467C306.724 51.9079 314.414 57.6838 319.531 62.0472C324.365 66.2222 335.289 77.1464 339.465 81.9806C348.756 92.842 357.514 106.026 363.824 118.646C374.623 140.18 380.556 161.306 382.816 186.356C383.318 191.913 383.349 209.146 382.847 214.922C379.488 254.004 365.456 288.252 340.595 318.199C335.76 324.038 323.989 335.841 318.119 340.675C292.378 362.053 263.184 375.52 230.694 380.95C220.304 382.677 212.424 383.305 200.715 383.305C189.007 383.305 181.127 382.677 170.737 380.95C138.278 375.52 109.022 362.021 83.3124 340.675C77.4423 335.841 65.6706 324.038 60.8364 318.199C51.6073 307.087 44.6385 296.602 38.3917 284.454C27.0594 262.386 20.9695 241.071 18.6152 215.236C18.113 209.774 18.113 191.818 18.6152 186.356C20.9068 161.149 26.7769 140.243 37.6069 118.614C43.9479 105.995 52.6433 92.8734 61.9664 81.9806C66.1415 77.1464 77.0656 66.2222 81.8998 62.0472C117.529 31.5664 163.674 15.8708 210.29 18.4135Z" fill="black"/>
<path d="M191.141 21.7413C171.741 22.997 154.508 26.6069 137.776 32.9166C86.9537 52.0966 47.5892 92.9993 30.5438 144.355C21.1892 172.576 19.0232 203.308 24.3283 232.816C29.1939 259.749 40.3692 285.553 56.724 307.527C97.1873 361.928 164.145 388.83 230.851 377.498C279.978 369.148 323.424 340.613 350.828 298.737C364.954 277.171 374.183 252.812 378.044 227.165C379.425 217.999 379.771 212.443 379.771 200.797C379.771 189.151 379.425 183.594 378.044 174.428C375.972 160.647 372.111 146.364 367.089 134.09C366.053 131.485 364.954 128.754 364.64 127.969C364.358 127.184 364.044 126.494 363.95 126.4C363.855 126.305 362.694 123.982 361.313 121.22C355.034 108.444 346.245 95.1025 336.608 83.8645C332.056 78.528 321.603 68.2003 316.235 63.7427C287.512 39.8226 254.488 25.9477 217.667 22.3377C212.738 21.8355 195.504 21.4588 191.141 21.7413ZM215.124 22.8086C216.913 22.9656 218.389 23.1539 218.42 23.1853C218.577 23.405 218.075 31.6295 217.918 31.7865C217.824 31.8807 215.783 31.7865 213.397 31.5981C208.092 31.1901 193.056 31.1901 188.159 31.5981C186.181 31.7551 184.329 31.912 184.047 31.912C183.639 31.912 183.45 31.3156 183.168 28.8357C182.948 27.172 182.728 25.1943 182.634 24.4723L182.446 23.1853L184.423 22.9656C191.643 22.2122 207.59 22.118 215.124 22.8086ZM182.32 27.6742C182.571 29.903 182.697 31.8179 182.571 31.9434C182.446 32.0376 180.437 32.3515 178.114 32.6654C175.791 32.948 172.055 33.5444 169.795 33.9525C167.566 34.3606 165.683 34.6745 165.651 34.6117C165.589 34.5803 165.212 32.9166 164.772 30.9389C164.333 28.9613 163.925 27.0464 163.831 26.7011C163.705 26.0733 163.894 25.9791 167.221 25.3513C170.36 24.7863 178.02 23.6248 180.468 23.3736C181.002 23.3109 181.504 23.3423 181.63 23.4364C181.724 23.5306 182.038 25.4141 182.32 27.6742ZM225.044 23.9073C228.654 24.3782 235.465 25.5082 236.533 25.8222C236.972 25.9477 236.941 26.45 236.156 30.2797C235.717 32.634 235.183 34.5489 235.026 34.5175C233.174 34.1722 222.626 32.5085 220.994 32.3201L218.828 32.069L218.891 29.4008C218.922 27.9254 219.016 25.9163 219.111 24.9432L219.299 23.1853L220.303 23.3109C220.837 23.3736 222.972 23.6562 225.044 23.9073ZM163.046 26.4814C163.046 26.6383 163.485 28.5532 163.988 30.8134C164.49 33.0421 164.867 34.8942 164.835 34.9256C164.804 34.9256 163.36 35.2709 161.633 35.679C158.934 36.2754 150.552 38.567 149.391 39.0065C149.045 39.132 147.507 35.3337 146.283 31.4098C146.095 30.782 146.314 30.6564 148.732 29.903C151.557 29.0241 161.979 26.293 162.669 26.293C162.858 26.2616 163.046 26.3558 163.046 26.4814ZM245.008 27.8312C252.919 29.8402 255.524 30.7192 255.399 31.3156C255.305 31.8179 252.793 38.9123 252.668 39.0692C252.636 39.1006 250.408 38.5356 247.771 37.7508C245.103 36.9974 241.524 36.0557 239.797 35.679C238.071 35.2709 236.533 34.8628 236.376 34.7059C236.156 34.5175 237.286 27.1406 237.663 26.4814C237.914 26.0733 238.856 26.2302 245.008 27.8312ZM146.126 33.0735C146.503 34.2664 147.162 36.1185 147.539 37.2172C147.947 38.3472 148.261 39.289 148.198 39.3204C148.167 39.3518 145.938 40.1679 143.207 41.1411C140.507 42.1142 136.991 43.464 135.39 44.1546C133.789 44.8452 132.471 45.3789 132.408 45.3161C132.188 45.065 128.484 37.4683 128.578 37.4055C129.175 36.966 144.494 31.0331 145.216 30.9703C145.31 30.9703 145.718 31.912 146.126 33.0735ZM267.233 35.0198C270.059 36.1813 272.225 37.123 272.538 37.4055C272.821 37.6252 269.023 45.4103 268.709 45.2847C266.229 44.186 260.076 41.8003 257.376 40.8585C255.493 40.1993 253.798 39.5715 253.672 39.4459C253.515 39.3204 254.049 37.3741 254.865 35.1139L256.341 31.0331L260.139 32.3829C262.242 33.1363 265.444 34.3292 267.233 35.0198ZM212.487 32.226C262.211 35.8673 306.723 60.2897 336.545 100.345C352.712 122.036 363.573 148.028 367.685 174.899C369.16 184.442 369.412 188.24 369.443 200.483C369.443 212.474 369.255 215.676 367.999 224.497C360.81 275.413 330.8 320.209 286.256 346.515C265.161 358.977 241.995 366.417 216.097 369.116C210.823 369.65 190.607 369.65 185.334 369.116C158.808 366.354 135.798 358.82 113.919 345.73C82.3392 326.864 57.3832 297.576 43.7595 263.453C37.2301 247.036 33.369 230.053 32.1133 211.941C31.6425 205.223 31.925 189.747 32.6156 183.531C35.7233 155.468 44.5756 130.606 59.612 107.879C80.4558 76.3306 111.219 52.5674 146.566 40.733C161.414 35.7732 172.903 33.513 190.513 32.1318C193.652 31.8807 208.532 31.9434 212.487 32.226ZM280.826 41.2038C283.117 42.3339 286.978 44.4371 289.395 45.8183C293.727 48.2669 304.4 55.1729 304.746 55.7066C304.934 55.9891 299.943 62.8638 299.629 62.7696C299.535 62.7382 297.212 61.2314 294.512 59.4421C288.454 55.3927 280.92 51.0607 274.547 48.0157L269.776 45.7242L270.215 44.6883C270.435 44.1546 271.251 42.3339 271.973 40.6702L273.292 37.6252L274.956 38.3786C275.866 38.7553 278.503 40.0424 280.826 41.2038ZM129.771 41.6433C130.807 43.7151 131.655 45.473 131.655 45.5672C131.655 45.6614 129.489 46.7601 126.883 48.0157C120.574 51.0293 113.511 55.0787 107.327 59.191C104.564 61.0117 102.147 62.6126 101.927 62.7696C101.708 62.8951 100.734 61.7965 99.1963 59.5363C97.8779 57.6528 96.8106 55.9577 96.8106 55.8007C96.8106 55.3299 106.793 48.8005 112.192 45.7242C116.461 43.2757 127.103 37.8764 127.637 37.8764C127.762 37.8764 128.735 39.5715 129.771 41.6433ZM98.5057 59.8188C99.8241 61.7023 100.891 63.3032 100.891 63.366C100.891 63.4602 99.1963 64.81 97.1245 66.411C95.084 68.0119 92.2588 70.3035 90.8776 71.4963C89.465 72.6892 88.2408 73.6623 88.0838 73.6623C87.9269 73.6623 86.4201 72.3439 84.725 70.7429L81.6172 67.8236L82.9357 66.6307C86.5456 63.366 95.3666 56.3972 95.9002 56.3972C96.0258 56.3972 97.2186 57.9353 98.5057 59.8188ZM309.266 59.034C312.217 61.3256 315.89 64.2764 318.244 66.3796L319.405 67.3841L316.517 70.5232C314.917 72.2497 313.504 73.6623 313.347 73.6623C313.19 73.6623 311.903 72.6578 310.49 71.4336C309.078 70.2093 306.253 67.9177 304.212 66.3482C302.015 64.6217 300.571 63.3346 300.665 63.0835C301.136 61.922 305.468 56.4286 305.813 56.5541C306.033 56.6483 307.602 57.747 309.266 59.034ZM326.594 74.2588C330.047 77.6804 332.872 80.6312 332.841 80.7567C332.841 81.0393 326.5 86.2188 326.217 86.2188C326.123 86.2188 323.361 83.5192 320.033 80.2545L314.006 74.2588L316.894 71.151C318.495 69.4245 319.908 68.0119 320.065 68.0119C320.222 68.0119 323.141 70.8057 326.594 74.2588ZM84.2855 71.3708L87.299 74.4471L81.2091 80.4428L75.1192 86.4699L71.8546 83.6447L68.5899 80.7881L70.3792 78.7477C72.2627 76.5817 80.7697 68.3258 81.0836 68.3258C81.2091 68.3258 82.6531 69.707 84.2855 71.3708ZM71.4151 84.2098C73.1416 85.6851 74.5228 86.9722 74.5228 87.0978C74.5228 87.2233 73.3927 88.6359 72.0115 90.2369C70.6303 91.8378 68.3074 94.6944 66.832 96.6093C64.9171 99.0264 64.0068 99.9681 63.6929 99.8112C62.7511 99.2775 56.9751 95.1653 56.9438 95.0083C56.9124 94.4433 67.554 81.5415 68.0562 81.5101C68.1818 81.5101 69.72 82.703 71.4151 84.2098ZM335.886 84.1784C345.46 95.1967 353.873 107.816 360.779 121.597L363.322 126.713L362.443 127.153C361.972 127.404 360.151 128.252 358.362 129.005L355.16 130.449L353.465 126.87C350.106 119.776 344.581 110.39 339.81 103.672L337.612 100.533L340.971 98.0847C342.823 96.7348 344.393 95.4478 344.456 95.2595C344.644 94.663 343.796 95.1653 340.595 97.4882C338.899 98.7125 337.393 99.717 337.267 99.717C337.141 99.717 335.854 98.2102 334.41 96.3268C332.15 93.4702 329.482 90.2369 327.159 87.6C326.563 86.9408 326.594 86.9094 329.953 84.2098C331.805 82.7344 333.406 81.5415 333.5 81.5729C333.626 81.6357 334.693 82.7972 335.886 84.1784ZM60.1457 98.2416C61.8408 99.4031 63.2848 100.502 63.3789 100.659C63.4731 100.816 62.6256 102.228 61.4641 103.861C56.881 110.327 51.2933 119.87 47.9659 126.87L46.2708 130.418L42.2841 128.848C40.0553 127.969 38.2032 127.184 38.1404 127.122C37.8893 126.933 43.0688 116.731 45.7057 112.117C50.4144 103.923 56.1276 95.4792 56.724 95.8559C56.9438 95.9815 58.4819 97.0488 60.1457 98.2416ZM364.452 129.444C366.649 134.342 370.134 143.853 369.82 144.167C369.474 144.512 361.752 146.741 361.627 146.521C361.564 146.427 360.779 144.418 359.931 142.095C359.053 139.772 357.703 136.319 356.918 134.467L355.505 131.077L357.922 130.01C359.241 129.413 360.905 128.628 361.595 128.314C362.286 127.969 363.039 127.687 363.259 127.687C363.479 127.655 364.012 128.471 364.452 129.444ZM41.1226 129.099C42.6608 129.727 44.3559 130.418 44.9209 130.637L45.9254 131.077L44.5128 134.467C43.7281 136.319 42.3469 139.835 41.4679 142.252C40.5889 144.669 39.8669 146.678 39.8356 146.71C39.7728 146.835 31.6739 144.544 31.4855 144.355C31.046 143.884 37.3243 127.969 37.9521 127.969C38.1404 127.969 39.553 128.471 41.1226 129.099ZM370.636 145.611C370.73 146.019 371.452 148.53 372.237 151.199C373.775 156.41 375.093 161.84 374.874 162.06C374.717 162.185 368.501 163.598 367.151 163.818C366.461 163.912 366.367 163.661 365.048 158.575C364.295 155.625 363.259 151.952 362.757 150.351L361.846 147.463L363.604 146.929C364.577 146.647 366.429 146.082 367.716 145.674C370.667 144.795 370.448 144.795 370.636 145.611ZM34.2793 145.988C35.7861 146.427 37.6068 146.898 38.2974 147.086L39.6158 147.432L38.6741 150.351C38.1718 151.921 37.1359 155.625 36.3825 158.575C35.4722 162.123 34.8758 163.912 34.5932 163.881C34.3735 163.849 32.4586 163.535 30.3554 163.127C26.8396 162.468 26.4943 162.342 26.4943 161.746C26.4943 160.051 30.7635 145.234 31.2344 145.234C31.4227 145.234 32.7725 145.58 34.2793 145.988ZM375.564 164.446C376.223 167.522 377.699 176.782 377.824 178.509L377.919 180.204L373.775 180.832C371.483 181.177 369.537 181.365 369.443 181.303C369.38 181.209 369.004 179.105 368.658 176.594C368.282 174.114 367.685 170.41 367.277 168.401L366.555 164.728L369.569 164.069C371.232 163.692 373.022 163.284 373.524 163.127C375.093 162.688 375.188 162.751 375.564 164.446ZM30.7321 163.912C32.9609 164.351 34.813 164.697 34.813 164.697C34.8444 164.697 34.5304 166.361 34.1538 168.37C33.7457 170.41 33.1492 174.114 32.7725 176.625C32.3958 179.105 32.0505 181.209 31.9564 181.303C31.768 181.491 23.8574 180.361 23.5749 180.078C23.1982 179.733 25.1759 166.737 26.0548 163.661C26.2746 163.002 25.8665 162.97 30.7321 163.912ZM28.158 181.617C30.1671 181.931 31.8936 182.244 31.9564 182.307C32.0192 182.37 31.925 183.563 31.768 184.944C31.046 191.63 30.9832 209.712 31.6739 215.456L31.8622 217.089L30.5124 217.246C29.759 217.34 27.8127 217.497 26.1176 217.591C23.3866 217.779 23.0727 217.716 22.9157 217.214C22.5076 215.739 22.0368 201.99 22.2251 196.433C22.4448 190.186 22.9157 182.998 23.1982 181.711C23.3866 180.895 23.418 180.895 28.158 181.617ZM378.201 181.554C379.331 185.321 379.425 216.492 378.327 217.622C378.17 217.779 369.945 216.649 369.757 216.429C369.726 216.367 369.788 214.766 369.945 212.882C370.51 205.725 370.165 186.263 369.443 182.966C369.349 182.59 369.317 182.276 369.349 182.244C370.071 182.087 376.569 181.083 377.197 181.052C377.73 181.02 378.076 181.209 378.201 181.554ZM378.327 218.533C378.609 218.784 376.098 235.515 375.721 235.923C375.502 236.112 367.403 234.636 367.246 234.354C367.151 234.26 367.371 232.596 367.716 230.744C368.25 227.919 369.6 218.313 369.6 217.465C369.6 217.277 378.044 218.313 378.327 218.533ZM32.49 222.676C32.8039 225.25 33.369 228.923 33.7143 230.775C34.0282 232.659 34.2793 234.228 34.2479 234.26C34.1224 234.385 25.7095 235.923 25.6154 235.829C25.27 235.484 22.8529 218.784 23.1041 218.501C23.2296 218.407 31.6111 217.873 31.768 217.936C31.8308 217.968 32.1447 220.102 32.49 222.676ZM35.3466 238.874C35.8175 240.977 36.7906 244.682 37.4812 247.099C38.1404 249.484 38.6741 251.493 38.6427 251.525C38.2974 251.87 30.4496 253.848 30.2612 253.659C29.7904 253.189 26.714 241.637 26.0234 237.775C25.8037 236.645 25.8037 236.614 27.028 236.394C27.6872 236.269 29.5079 235.923 31.046 235.609C32.6156 235.327 34.0282 235.044 34.1851 235.044C34.3735 235.013 34.8758 236.74 35.3466 238.874ZM371.452 235.986C373.461 236.363 375.219 236.771 375.345 236.897C375.753 237.273 371.735 253.377 371.075 254.036C370.981 254.13 369.066 253.628 366.806 252.906C363.416 251.839 362.694 251.493 362.819 251.085C363.761 248.009 365.331 242.17 366.021 239.125C366.618 236.457 367.026 235.327 367.34 235.327C367.591 235.327 369.412 235.641 371.452 235.986ZM40.3064 256.108C41.0284 258.242 42.3155 261.696 43.163 263.83C44.0106 265.965 44.7012 267.817 44.7012 267.974C44.7012 268.162 42.9747 269.135 40.9029 270.203C37.9207 271.678 37.0104 272.023 36.822 271.678C35.9431 270.328 30.2926 254.915 30.6066 254.695C30.7321 254.57 38.3916 252.341 38.7683 252.31C38.8938 252.278 39.5844 254.005 40.3064 256.108ZM367.12 253.754C371.483 255.103 371.295 254.13 368.627 261.57C366.272 268.068 364.734 271.615 364.295 271.521C363.416 271.301 356.73 268.194 356.73 267.974C356.73 267.817 357.64 265.4 358.739 262.574C359.837 259.781 361.124 256.296 361.595 254.852C362.254 252.843 362.568 252.278 362.914 252.404C363.196 252.529 365.08 253.126 367.12 253.754ZM46.1452 270.862C49.0332 277.485 55.437 288.912 60.177 295.849C61.4013 297.67 62.2489 299.208 62.0919 299.334C61.935 299.491 60.334 300.683 58.5447 302.002L55.3114 304.388L54.3383 303.038C52.2665 300.213 48.1228 293.652 45.6429 289.32C42.9119 284.611 37.4812 273.75 37.4812 273.091C37.4812 272.745 44.3873 268.978 45.0779 268.947C45.2035 268.916 45.6743 269.794 46.1452 270.862ZM360.214 270.516C362.192 271.395 363.918 272.243 364.075 272.369C364.64 272.902 357.2 287.311 352.241 295.284C350.797 297.607 346.716 303.728 346.182 304.325C346.119 304.419 343.2 302.473 338.899 299.491C338.837 299.459 339.841 297.89 341.128 296.037C345.868 289.1 352.335 277.611 355.286 270.862C355.756 269.794 356.259 268.916 356.384 268.916C356.51 268.916 358.236 269.637 360.214 270.516ZM64.9799 302.567C66.1728 304.168 68.5899 307.244 70.3792 309.379C72.1685 311.482 73.5811 313.271 73.5183 313.303C73.4555 313.334 71.9801 314.59 70.2222 316.096C68.4643 317.603 66.9575 318.827 66.8634 318.827C66.6122 318.827 60.8677 311.89 58.0738 308.217L55.6881 305.015L59.2039 302.379C61.1502 300.903 62.7511 299.71 62.7825 299.679C62.7825 299.679 63.787 300.997 64.9799 302.567ZM342.352 302.724L345.743 305.047L343.326 308.217C340.092 312.486 334.819 318.827 334.473 318.827C334.159 318.827 328.038 313.868 327.912 313.491C327.85 313.334 329.262 311.482 331.052 309.347C332.841 307.244 335.195 304.262 336.294 302.755C337.424 301.248 338.46 300.118 338.648 300.213C338.837 300.338 340.5 301.468 342.352 302.724ZM85.7923 325.985C85.8236 326.11 84.5994 327.648 83.0926 329.406L80.3616 332.608L78.3212 330.756C76.4377 329.092 74.2089 326.832 69.0921 321.464L67.2401 319.549L70.5989 316.693L73.9578 313.836L79.8593 319.801C83.124 323.097 85.7923 325.891 85.7923 325.985ZM330.549 316.693C332.339 318.137 333.751 319.487 333.72 319.675C333.626 320.209 325.495 328.747 323.267 330.631L321.54 332.106L318.464 329.061L315.419 326.016L321.226 320.083C324.428 316.818 327.128 314.15 327.19 314.15C327.253 314.119 328.76 315.28 330.549 316.693ZM90.2812 329.595C92.9181 331.855 98.8824 336.626 99.573 337.003C99.8869 337.191 99.3846 338.133 97.407 340.895L94.8329 344.537L93.4203 343.532C91.7252 342.308 85.0075 336.815 82.5904 334.68L80.8324 333.11L83.7204 329.752C86.5456 326.487 86.6084 326.424 87.2363 326.958C87.5816 327.272 88.9628 328.465 90.2812 329.595ZM319.092 334.46C316.517 336.752 309.831 342.214 308.01 343.532L306.629 344.537L303.898 341.272C302.391 339.451 301.167 337.851 301.167 337.694C301.167 337.537 301.544 337.16 302.046 336.877C303.239 336.093 309.643 330.913 312.468 328.433L314.822 326.393L317.961 329.532L321.101 332.671L319.092 334.46ZM105.004 340.833C110.56 344.694 117.717 348.932 124.435 352.353C127.637 353.954 130.274 355.398 130.336 355.555C130.462 355.869 127.637 362.807 127.229 363.215C126.915 363.56 118.973 359.73 113.134 356.403C105.788 352.228 95.4293 345.416 95.6177 344.882C95.9944 343.846 100.483 337.756 100.766 337.945C100.923 338.039 102.838 339.357 105.004 340.833ZM303.176 341.492C304.652 343.25 305.876 344.788 305.876 344.914C305.876 345.322 298.154 350.501 292.221 354.08C287.167 357.125 276.588 362.712 274.956 363.215C274.39 363.372 274.077 362.901 272.381 359.51L270.435 355.618L276.18 352.761C282.741 349.465 291.185 344.537 296.458 340.833C298.436 339.451 300.163 338.321 300.288 338.29C300.382 338.29 301.701 339.734 303.176 341.492ZM136.175 357.721C138.624 358.726 142.171 360.076 144.054 360.735C145.969 361.394 147.539 361.959 147.57 361.99C147.633 362.022 147.036 363.874 146.283 366.103C145.027 369.87 144.87 370.152 144.18 370.058C142.83 369.901 128.61 364.502 127.982 363.905C127.762 363.717 131.184 355.869 131.466 355.869C131.623 355.869 133.758 356.685 136.175 357.721ZM271.659 359.636C272.695 361.708 273.543 363.497 273.543 363.654C273.543 364.094 261.206 369.022 257.376 370.121C256.811 370.278 256.592 369.87 255.399 366.448C254.677 364.345 254.08 362.461 254.08 362.273C254.08 362.085 255.744 361.331 257.785 360.609C259.794 359.887 263.215 358.537 265.381 357.627C267.547 356.685 269.399 355.932 269.525 355.9C269.682 355.9 270.624 357.564 271.659 359.636ZM161.162 365.789C163.14 366.26 164.804 366.668 164.835 366.668C164.867 366.699 164.49 368.551 163.988 370.78C163.485 373.04 163.046 374.955 163.046 375.112C163.046 375.237 162.732 375.269 162.355 375.175C157.082 374.013 151.4 372.506 147.445 371.219L145.53 370.592L146.911 366.417L148.323 362.241L152.938 363.591C155.481 364.345 159.185 365.349 161.162 365.789ZM254.708 366.479C255.776 369.556 255.964 370.435 255.65 370.623C254.708 371.219 241.649 374.767 239.358 375.08C238.636 375.175 238.542 375.018 237.726 371.565C237.223 369.587 236.847 367.672 236.815 367.295C236.815 366.699 237.255 366.542 240.99 365.632C243.25 365.067 246.892 364.094 249.058 363.434C251.224 362.775 253.076 362.336 253.17 362.43C253.264 362.524 253.955 364.376 254.708 366.479ZM171.522 367.923C174.033 368.331 177.36 368.865 178.899 369.053C180.468 369.242 181.881 369.461 182.069 369.524C182.289 369.587 182.257 370.78 182.006 373.48C181.786 375.614 181.598 377.56 181.598 377.749C181.567 378.314 180.154 378.251 175.257 377.529C171.553 376.964 163.925 375.646 163.768 375.52C163.705 375.489 164.992 369.179 165.4 367.547C165.557 366.95 165.746 366.825 166.279 366.95C166.656 367.044 169.01 367.484 171.522 367.923ZM236.156 368.017C236.847 370.466 237.883 375.332 237.726 375.457C237.192 375.959 220.366 378.471 219.99 378.094C219.801 377.874 218.954 371.753 218.922 370.309C218.922 369.493 218.954 369.493 223.254 368.928C225.609 368.645 229.25 368.049 231.322 367.672C233.394 367.264 235.246 366.919 235.465 366.887C235.685 366.887 235.999 367.39 236.156 368.017ZM188.473 369.995C193.715 370.435 207.621 370.403 213.24 369.995C215.72 369.807 217.824 369.744 217.918 369.838C218.075 369.995 219.236 378.22 219.111 378.377C218.859 378.722 207.747 379.224 200.715 379.224C193.433 379.224 182.665 378.722 182.32 378.377C182.257 378.314 183.011 370.34 183.105 369.744C183.136 369.618 184.392 369.681 188.473 369.995Z" fill="black"/>
<path d="M195.849 24.2204C194.814 25.2249 194.719 27.799 195.692 28.7721C197.105 30.1847 200.181 29.2116 200.181 27.3595C200.181 26.1666 199.302 25.5702 197.796 25.6958C196.76 25.7899 196.634 25.7272 196.697 25.1621C196.791 24.5971 196.98 24.5343 198.486 24.6285C200.213 24.7226 200.213 24.7226 199.616 24.0634C198.769 23.1531 196.823 23.2159 195.849 24.2204ZM198.392 26.7003C198.863 27.077 198.926 27.2653 198.643 27.7362C198.141 28.5524 197.074 28.6151 196.666 27.8618C196.414 27.3909 196.446 27.1398 196.823 26.7631C197.419 26.1352 197.607 26.1352 198.392 26.7003Z" fill="black"/>
<path d="M201.688 24.252C200.778 25.3821 200.778 27.8934 201.657 28.7723C202.473 29.5885 204.451 29.6199 205.455 28.8037C206.052 28.3015 206.177 27.9248 206.177 26.418C206.177 24.9112 206.052 24.5345 205.455 24.0323C204.325 23.1219 202.473 23.2475 201.688 24.252ZM204.482 25.0054C204.953 25.9157 204.733 27.862 204.137 28.2387C203.132 28.8665 202.599 28.2701 202.599 26.4808C202.599 25.539 202.693 24.6915 202.818 24.5973C203.226 24.1578 204.168 24.409 204.482 25.0054Z" fill="black"/>
<path d="M208.563 42.5538C205.487 43.5583 203.478 46.0068 203.038 49.2715C202.85 50.6213 202.85 50.6527 203.854 50.8724C204.419 50.9666 205.487 51.0608 206.24 51.0608C207.558 51.0608 207.621 51.0294 207.904 49.8679C208.5 47.7333 209.913 46.7602 211.859 47.1055C213.46 47.4194 214.213 48.5809 214.213 50.7155C214.213 53.0384 213.334 54.5452 209.473 58.6575C204.168 64.3706 202.599 67.0703 202.599 70.5233V72.7207L211.168 72.6579L219.707 72.5637V70.2094V67.8551L214.151 67.7609C209.724 67.6981 208.563 67.6039 208.563 67.2586C208.563 66.6308 209.599 65.3752 213.46 61.4199C215.846 58.94 217.29 57.1507 218.012 55.7695C219.016 53.8546 219.079 53.5407 219.079 50.5899C219.079 48.1414 218.953 47.1997 218.483 46.3521C217.039 43.6525 215.124 42.5224 211.702 42.3968C210.415 42.334 209.002 42.3968 208.563 42.5538Z" fill="black"/>
<path d="M186.966 45.1279L183.764 47.6705V49.8365C183.764 51.0294 183.858 52.0025 183.984 52.0025C184.141 52.0025 184.894 51.4689 188.724 48.6123L189.728 47.8589V58.0924V68.3259H186.746H183.764V70.5233V72.7207H192.083H200.401V70.5233V68.3259H197.576H194.751L194.688 55.5183L194.594 42.7421L192.365 42.6479L190.168 42.5538L186.966 45.1279Z" fill="black"/>
<path d="M114.546 67.6038L111.501 70.0524L111.438 72.3439C111.438 73.5682 111.47 74.6041 111.564 74.6041C111.627 74.6041 112.757 73.7879 114.075 72.7834C115.362 71.7789 116.618 70.8371 116.838 70.7116C117.12 70.5232 117.214 72.595 117.214 80.537V90.5822L114.326 90.6764L111.407 90.7705L111.313 93.0307L111.219 95.3223H119.569H127.919L127.825 93.0307L127.731 90.7705L124.999 90.6764L122.237 90.5822V77.9002V65.1867H119.914H117.591L114.546 67.6038Z" fill="black"/>
<path d="M132.471 67.6038L129.457 69.9896V72.3439V74.6669L130.65 73.8193C131.278 73.317 132.376 72.4695 133.067 71.9358C133.758 71.4022 134.511 70.8371 134.731 70.7116C135.013 70.5232 135.108 72.595 135.108 80.6312V90.7705H132.22H129.3L129.206 93.0307L129.112 95.3223H137.462H145.812L145.718 93.0307L145.624 90.7705L142.893 90.6764L140.13 90.5822V77.9002V65.1867H137.807H135.516L132.471 67.6038Z" fill="black"/>
<path d="M271.377 67.698L268.206 70.2093V72.4067C268.206 73.631 268.3 74.6041 268.426 74.6041C268.52 74.6041 269.681 73.7879 271 72.7834C272.318 71.7789 273.574 70.8371 273.794 70.7116C274.076 70.5232 274.17 72.595 274.17 80.537V90.6136H271.188H268.206V92.9679V95.3223L276.462 95.2595L284.686 95.1653V92.9679V90.7705L281.955 90.6764L279.193 90.5822V77.9002V65.1867H276.87H274.516L271.377 67.698Z" fill="black"/>
<path d="M320.975 114.879C319.311 115.413 317.365 117.485 316.58 119.588C315.638 122.13 315.701 122.947 316.8 122.947L321.031 121.73C321 121.56 321.109 121.312 321.352 120.843C322.45 118.74 325.841 118.615 326.939 120.655C327.504 121.722 327.442 124.171 326.751 125.552C326.437 126.211 324.616 128.471 322.702 130.575C317.051 136.759 315.607 139.207 315.607 142.723V144.92L324.177 144.858L332.715 144.764L332.809 142.315L332.904 139.898H327.222C321.163 139.898 321.038 139.866 322.105 138.328C322.388 137.889 324.334 135.786 326.406 133.62C331.114 128.754 332.025 127.122 332.213 123.355C332.339 119.933 331.742 118.081 329.89 116.417C329.168 115.727 328.007 115.005 327.347 114.816C325.809 114.377 322.388 114.44 320.975 114.879Z" fill="black"/>
<path fill-rule="evenodd" clip-rule="evenodd" d="M200.088 328.559H199.397C198.141 328.59 196.195 329.658 194.971 331.039C192.554 333.738 191.549 337.505 191.549 344.254C191.518 349.403 191.894 351.726 193.213 354.519C194.72 357.721 197.168 359.322 200.464 359.322C205.204 359.322 208.218 355.869 208.5 350.093C208.752 344.945 207.402 341.712 204.357 340.299L202.693 339.546L200.088 339.797L199.114 340.142C198.581 340.331 197.733 340.927 197.2 341.492L196.226 342.528L196.415 339.985C196.509 338.573 196.854 336.846 197.137 336.124C197.608 334.9 199.146 333.268 199.805 333.268C199.814 333.268 199.824 333.273 199.833 333.283C201.071 333.302 201.762 333.336 202.854 334.979C202.863 334.982 202.872 334.987 202.881 334.994C203.07 335.088 203.227 335.402 203.227 335.653C203.227 336.187 203.384 336.187 205.958 335.747C207.056 335.559 207.935 335.277 207.935 335.12C207.935 334.994 207.653 334.115 207.308 333.173C206.648 331.416 205.298 329.909 203.635 329.061C202.195 328.583 201.425 328.508 200.088 328.559ZM197.357 345.793C196.038 347.739 196.509 352.04 198.204 353.735C198.78 354.311 199.181 354.668 199.46 354.678C201.294 354.327 202.196 353.995 203.07 352.605C203.854 351.537 203.98 348.712 203.321 346.358C203.235 346.036 203.156 345.849 203.084 345.793C202.073 343.913 201.332 343.688 199.868 343.941C199.209 343.972 197.984 344.851 197.357 345.793Z" fill="black"/>
<path d="M81.2406 117.453C78.2898 118.928 76.94 121.973 76.3122 128.377C75.9041 132.866 76.3436 138.36 77.3795 141.405C78.7293 145.36 81.1778 147.432 84.5681 147.432C90.2185 147.4 93.0751 142.221 93.0437 131.924C93.0123 126.776 92.4473 123.449 91.0975 120.781C89.6535 117.893 88.2095 116.951 85.1331 116.762C83.1241 116.637 82.6532 116.731 81.2406 117.453ZM86.5771 122.13C87.7072 123.229 88.1153 125.866 88.1153 131.893C88.1153 137.92 87.7386 140.4 86.5457 141.781C85.5412 142.974 83.7519 143.1 82.7788 142.001C81.5859 140.714 81.3348 139.301 81.1778 133.431C80.9581 124.265 81.7743 121.377 84.5995 121.377C85.5098 121.377 86.0749 121.597 86.5771 122.13Z" fill="black"/>
<path d="M60.3337 119.524L57.2573 122.036V124.233C57.2573 125.426 57.3515 126.399 57.4457 126.399C57.5398 126.399 58.7013 125.583 60.0197 124.578C61.3382 123.574 62.6252 122.632 62.845 122.506C63.1275 122.318 63.2216 124.421 63.2216 132.489V142.722H60.2395H57.2573V144.92V147.117H65.3876H73.518L73.6435 144.92L73.7377 142.722H71.0067H68.2442L68.1815 129.915L68.0873 117.139L65.7329 117.076L63.3786 117.013L60.3337 119.524Z" fill="black"/>
<path d="M47.1809 186.67C45.3288 186.984 44.1674 187.611 42.9431 188.93C40.9654 191.002 40.0865 194.109 40.4318 197.876C40.7771 201.957 42.5978 205.159 45.1091 206.101C47.3693 206.98 50.32 206.289 51.921 204.5C52.8627 203.495 52.8627 203.495 52.8627 204.249C52.8627 205.881 52.1721 209.083 51.6385 210.182C50.7595 211.877 49.8492 212.567 48.4679 212.567C47.0867 212.567 46.3333 212.002 45.7369 210.59C45.5172 210.056 45.2347 209.585 45.1091 209.585C45.0149 209.585 44.0104 209.742 42.8803 209.931L40.8713 210.276L41.0596 211.28C41.6874 214.451 43.8848 216.68 46.9298 217.182C52.2349 218.092 55.9077 214.608 57.1633 207.482C57.8539 203.59 57.5714 196.118 56.661 193.199C55.0287 188.114 51.8582 185.916 47.1809 186.67ZM50.0375 191.535C52.5802 192.854 53.2708 198.567 51.199 200.953C50.1631 202.208 48.2482 202.365 47.0239 201.329C44.0104 198.787 45.2974 191.096 48.7191 191.064C48.9388 191.064 49.5352 191.284 50.0375 191.535Z" fill="black"/>
<path d="M348.316 189.685C346.056 190.815 344.392 193.106 343.984 195.712L343.796 196.967L345.993 197.187C347.218 197.313 348.348 197.313 348.505 197.219C348.662 197.124 348.881 196.622 349.007 196.088C349.29 194.582 350.514 193.577 352.021 193.577C353.716 193.577 354.5 194.017 355.034 195.304C355.85 197.281 355.442 199.667 354.061 200.797C353.778 201.017 352.68 201.299 351.612 201.394L349.666 201.582V203.936V206.291L351.801 206.479C353.684 206.636 354.061 206.793 354.94 207.672C355.85 208.551 355.944 208.833 355.944 210.497C355.944 212.694 355.411 213.793 353.998 214.452C351.926 215.457 349.133 214.201 348.693 212.129C348.316 210.434 348.411 210.466 345.993 210.717C344.738 210.811 343.608 210.968 343.482 211.031C343.2 211.188 343.953 214.233 344.549 215.394C345.209 216.618 346.841 218.156 348.254 218.847C348.85 219.161 350.294 219.475 351.424 219.569C357.451 220.009 360.967 216.838 360.967 210.999C360.967 208.833 360.841 208.3 360.119 207.013C359.209 205.506 357.859 204.47 356.29 204.062L355.379 203.842L356.604 203.277C359.868 201.707 361.218 198.003 360.025 193.954C359.021 190.595 356.415 188.868 352.303 188.868C350.388 188.868 349.635 189.025 348.316 189.685Z" fill="black"/>
<path d="M70.3164 261.099C67.3342 261.821 65.4821 263.642 64.7601 266.498C63.944 269.794 65.2624 273.75 67.5226 274.848C68.5899 275.382 68.8724 275.821 68.0876 275.821C67.3656 275.821 65.4507 277.674 64.6973 279.086C64.1951 280.091 64.0381 280.938 64.0381 282.884C64.0067 286.024 64.6973 287.938 66.3611 289.445C68.2445 291.14 69.5944 291.611 72.6707 291.643C74.9937 291.643 75.5901 291.548 77.1283 290.764C80.079 289.351 81.4288 286.84 81.4288 282.884C81.4288 279.557 80.1418 277.108 77.9444 276.167C77.2538 275.884 76.7202 275.602 76.7202 275.508C76.7202 275.413 77.191 275.131 77.7561 274.88C78.2897 274.629 79.1687 273.812 79.7023 273.059C80.4557 271.96 80.6441 271.332 80.7382 269.512C80.9266 266.467 80.3615 264.678 78.7292 263.077C76.9085 261.225 73.2044 260.346 70.3164 261.099ZM74.9623 266.122C76.5004 267.942 75.904 272.714 74.0833 273.185C71.6034 273.812 69.9397 272.714 69.5944 270.234C69.1863 267.095 70.3791 265.148 72.7649 265.148C73.9264 265.148 74.2717 265.305 74.9623 266.122ZM74.5228 278.113C75.6843 278.678 76.4063 280.373 76.4063 282.508C76.4063 285.741 75.182 287.436 72.8591 287.436C70.2222 287.436 69.0293 285.929 69.0293 282.571C69.0293 279.274 70.1908 277.736 72.6393 277.736C73.2357 277.705 74.0833 277.893 74.5228 278.113Z" fill="black"/>
<path d="M323.518 273.122L318.432 282.665V285.05V287.436H323.926H329.419V290.418V293.4H331.773H334.128V290.418V287.436H335.697H337.267V285.239V283.041H335.697H334.128V273.31V263.579H331.365H328.634L323.518 273.122ZM329.482 276.292L329.388 283.041H325.935C322.733 283.041 322.45 283.01 322.639 282.476C322.858 281.911 329.45 269.543 329.513 269.543C329.545 269.543 329.545 272.588 329.482 276.292Z" fill="black"/>
<path d="M265.978 311.984C265.978 312.549 265.789 316.254 265.569 320.24C265.35 324.196 265.224 327.554 265.287 327.68C265.318 327.774 266.323 327.868 267.484 327.868C269.368 327.868 269.744 327.743 270.623 326.989C272.005 325.765 273.26 325.545 274.704 326.267C276.399 327.083 277.09 328.465 277.09 331.039C277.09 334.555 275.709 336.501 273.198 336.501C271.628 336.501 270.435 335.685 269.807 334.147L269.305 332.922L267.108 333.111C265.915 333.236 264.816 333.425 264.659 333.55C264.534 333.676 264.659 334.492 264.91 335.339C266.072 339.232 268.928 341.272 273.229 341.21C275.897 341.178 277.341 340.676 279.036 339.169C281.453 337.066 282.678 332.797 282.018 328.684C281.579 325.953 280.731 324.196 279.193 322.783C277.059 320.868 273.292 320.46 271.314 321.935C270.78 322.343 270.278 322.595 270.215 322.5C270.121 322.406 270.153 320.774 270.278 318.859L270.498 315.375H275.615H280.763V313.177V310.98H273.386H266.009L265.978 311.984Z" fill="black"/>
<path d="M119.475 315.594L119.569 318.042L125.565 318.199L131.529 318.356L129.426 322.248C125.69 329.092 123.65 335.087 123.273 340.236L123.085 342.998H125.659H128.202V341.648C128.202 336.94 130.242 330.096 133.852 322.625C136.238 317.728 136.363 317.383 136.363 315.342V313.176H127.888H119.381L119.475 315.594Z" fill="black"/>
<path d="M285.22 47.5768C284.184 48.8638 284.31 49.1777 285.754 49.1777C287.072 49.1777 287.7 51.0612 286.539 51.5007C285.911 51.7518 284.843 51.1553 284.843 50.5903C284.843 50.1508 283.682 49.6172 283.399 49.8997C283.054 50.2136 284.216 51.9087 285 52.254C286.884 53.133 288.61 52.3796 288.61 50.6531C288.61 49.8369 287.355 48.5499 286.539 48.5499C286.287 48.5499 286.099 48.4243 286.099 48.2674C286.099 47.6081 286.758 47.6081 287.983 48.236C289.175 48.8324 289.866 48.8638 289.866 48.2674C289.866 47.9848 286.978 46.3525 286.507 46.3525C286.35 46.3525 285.754 46.9175 285.22 47.5768Z" fill="black"/>
<path d="M114.923 46.2569C113.322 47.1672 113.291 47.2614 114.076 49.3332C114.452 50.3377 114.798 50.3377 115.739 49.3018C116.681 48.2973 117.843 48.4856 117.843 49.6471C117.843 50.4633 116.901 51.1539 116.21 50.9028C115.99 50.8086 115.52 50.9341 115.174 51.1853C114.578 51.6248 114.578 51.6561 115.425 51.8445C116.618 52.1584 117.78 51.8131 118.659 50.84C119.632 49.8041 119.538 48.674 118.439 47.8578C117.686 47.2928 117.56 47.2614 116.461 47.7322C115.017 48.3287 114.892 48.3601 114.766 47.9834C114.703 47.795 115.3 47.2928 116.085 46.8219C116.869 46.351 117.434 45.8488 117.34 45.6918C117.058 45.2523 116.524 45.3779 114.923 46.2569Z" fill="black"/>
<path d="M109.838 49.1145C108.143 50.0563 108.017 50.4016 108.833 52.3792L109.241 53.4151L110.026 52.5989C111.125 51.4375 111.784 51.2805 112.349 52.0653C112.757 52.6931 112.757 52.8187 112.286 53.3523C111.941 53.6976 111.502 53.8546 111.093 53.7604C110.717 53.6663 110.152 53.7918 109.806 54.0116C109.241 54.451 109.241 54.4824 110.089 54.7963C111.721 55.4242 114.076 53.8546 114.076 52.1281C114.076 50.6527 112.098 49.9307 110.685 50.9352C110.026 51.3747 109.367 51.3119 109.367 50.7783C109.367 50.6213 109.995 50.1818 110.78 49.7737C112.098 49.0831 112.412 48.5495 111.69 48.3297C111.533 48.2984 110.717 48.6437 109.838 49.1145Z" fill="black"/>
<path d="M348.693 106.78C348.788 107.031 348.976 107.47 349.07 107.722C349.196 108.004 348.725 108.475 347.657 109.134C345.962 110.201 345.805 110.421 346.496 110.986C347.092 111.488 351.77 108.726 351.487 108.035C351.393 107.784 351.079 107.565 350.765 107.565C350.483 107.565 349.98 107.282 349.666 106.937C349.007 106.183 348.411 106.121 348.693 106.78Z" fill="black"/>
<path d="M350.263 111.96C348.945 112.808 348.38 114.157 348.882 115.162C350.106 117.453 351.958 117.642 354.155 115.633C355.066 114.785 355.034 113.498 354.03 112.305C353.057 111.144 351.738 111.018 350.263 111.96ZM353.559 113.153C353.936 113.875 353.716 114.22 352.335 115.068C351.016 115.853 350.263 115.915 350.012 115.225C349.698 114.377 349.792 114.22 350.985 113.373C352.366 112.431 353.151 112.368 353.559 113.153Z" fill="black"/>
<path d="M49.8805 108.319C48.2167 109.982 48.6876 111.803 51.1047 113.027C52.6743 113.812 53.7416 113.435 54.5892 111.866C55.1542 110.799 55.1856 110.642 54.7461 109.857C54.1183 108.758 52.3604 107.565 51.3873 107.565C50.9792 107.565 50.2886 107.911 49.8805 108.319ZM52.4546 109.606C53.8672 110.453 54.1811 111.269 53.3335 111.96C52.9568 112.274 52.6115 112.18 51.45 111.521C50.0374 110.673 49.6921 109.92 50.4141 109.198C50.9164 108.695 50.8536 108.695 52.4546 109.606Z" fill="black"/>
<path d="M46.3649 113.905L45.3604 115.569L46.5218 116.762C47.5891 117.829 47.7147 117.892 48.06 117.39C48.2797 117.107 48.4681 116.636 48.4681 116.323C48.4681 115.569 49.2842 115.004 50.0376 115.255C51.1049 115.601 50.8224 116.888 49.504 117.578C48.6564 118.018 48.5623 118.865 49.347 118.865C50.1004 118.865 51.513 117.358 51.7642 116.291C52.0153 115.349 51.5444 114.314 50.6655 113.843C49.7865 113.372 48.5936 113.937 47.9972 115.13C47.5891 115.883 47.4008 116.04 47.1183 115.758C46.8357 115.475 46.9299 115.067 47.4636 114.125C48.1228 112.995 48.1542 112.273 47.5891 112.273C47.4636 112.273 46.9299 113.026 46.3649 113.905Z" fill="black"/>
<path d="M26.4628 195.115C25.8977 195.555 25.7094 196.025 25.7094 196.999C25.7094 197.972 25.6152 198.286 25.2699 198.223C24.9874 198.16 24.8304 197.626 24.799 196.559C24.7676 195.335 24.6421 194.99 24.234 194.895C23.7317 194.801 23.6689 195.052 23.6689 196.842C23.6689 197.972 23.7631 198.945 23.9201 199.008C24.0456 199.102 24.799 199.259 25.6466 199.384C26.9964 199.604 27.122 199.573 27.122 198.976C27.122 198.6 26.9964 198.223 26.8081 198.129C26.3372 197.846 26.4314 196.842 26.965 196.402C27.7184 195.774 28.6915 196.308 28.6915 197.375C28.6915 197.878 28.566 198.286 28.3776 198.286C28.2207 198.286 28.0637 198.631 28.0637 199.07C28.0637 200.012 28.409 200.075 29.0996 199.29C29.4449 198.913 29.6333 198.16 29.6333 197.25C29.6333 196.088 29.4763 195.712 28.8171 195.178C27.7812 194.362 27.4045 194.362 26.4628 195.115Z" fill="black"/>
<path d="M27.4359 200.952C27.4359 201.329 27.0278 201.423 25.5524 201.423C23.7003 201.423 23.6689 201.455 23.6689 202.271C23.6689 202.961 24.0456 203.432 25.4582 204.531C27.844 206.352 28.1893 206.352 28.3148 204.468C28.409 203.244 28.5032 202.993 29.0368 202.993C29.4763 202.993 29.6333 202.773 29.6333 202.208C29.6333 201.643 29.4763 201.423 29.0054 201.423C28.6601 201.423 28.3776 201.203 28.3776 200.952C28.3776 200.701 28.1579 200.481 27.9068 200.481C27.6556 200.481 27.4359 200.701 27.4359 200.952ZM27.4359 203.966V204.908L26.3372 204.06C25.7408 203.621 25.2385 203.181 25.2385 203.118C25.2385 203.056 25.7408 202.993 26.3372 202.993C27.3417 202.993 27.4359 203.056 27.4359 203.966Z" fill="black"/>
<path d="M375.501 195.052C375.407 195.9 375.313 195.931 373.461 196.025C371.735 196.119 371.483 196.214 371.483 196.716C371.483 197.281 371.703 197.344 374.309 197.344C377.291 197.344 377.573 197.187 376.663 195.963C376.412 195.617 376.192 195.084 376.192 194.77C376.192 193.859 375.627 194.11 375.501 195.052Z" fill="black"/>
<path d="M371.766 200.389C371.107 201.143 371.201 203.434 371.923 204.219C372.645 205.035 374.026 205.066 374.717 204.313C375.031 203.999 375.25 203.214 375.25 202.587C375.25 201.77 375.376 201.425 375.721 201.425C376.067 201.425 376.192 201.802 376.192 202.995C376.192 204.187 376.318 204.564 376.663 204.564C377.04 204.564 377.134 204.125 377.134 202.555V200.546L376.004 200.358C375.407 200.232 374.685 200.044 374.403 199.95C373.995 199.793 373.963 199.981 374.152 201.331C374.309 202.492 374.246 202.963 373.901 203.246C372.865 204.125 371.609 202.492 372.551 201.456C373.179 200.766 373.21 199.855 372.614 199.855C372.394 199.855 371.986 200.075 371.766 200.389Z" fill="black"/>
<path d="M45.674 283.638C45.3287 283.857 45.4229 284.14 46.0821 285.113C46.7727 286.149 46.8355 286.369 46.4274 286.777C45.7995 287.499 46.396 288.503 47.1808 288.095C47.5575 287.876 47.8714 287.907 48.0911 288.127C48.3422 288.378 48.5306 288.252 48.7503 287.687C48.9073 287.248 49.6293 286.557 50.3199 286.18C51.45 285.521 51.5127 285.396 51.2302 284.736C51.0419 284.328 50.6652 283.92 50.3827 283.857C49.1898 283.512 46.0821 283.355 45.674 283.638ZM49.3781 284.611C49.6921 284.611 49.4723 284.893 48.8445 285.27C47.84 285.929 47.8086 285.929 47.3691 285.364C46.6785 284.454 46.8041 284.203 47.8714 284.423C48.405 284.517 49.0956 284.611 49.3781 284.611Z" fill="black"/>
<path d="M50.4772 287.875C49.3786 288.346 48.1543 289.759 48.1543 290.543C48.1543 291.422 49.3472 293.055 50.1633 293.274C51.1992 293.525 52.0782 293.212 53.3652 292.081C54.5267 291.046 54.6837 290.386 53.9617 289.005C53.1769 287.467 52.1724 287.153 50.4772 287.875ZM52.9571 289.382C53.4594 290.135 53.0199 290.794 51.6073 291.516C50.5714 292.05 50.1947 292.113 49.8494 291.799C49.0646 291.14 49.3472 290.324 50.7598 289.507C52.1724 288.628 52.4863 288.628 52.9571 289.382Z" fill="black"/>
<path d="M351.267 282.13C349.855 283.794 350.263 285.426 352.335 286.494C353.967 287.341 354.407 287.278 355.505 286.211C357.043 284.641 356.604 282.695 354.407 281.659C352.868 280.937 352.178 281.031 351.267 282.13ZM354.155 283.354C355.599 284.39 355.694 284.641 354.972 285.363C354.312 286.023 354.187 286.023 352.711 284.924C351.362 283.951 351.11 283.449 351.77 282.789C352.335 282.224 352.743 282.318 354.155 283.354Z" fill="black"/>
<path d="M348.191 286.714C346.967 288.127 346.684 289.602 347.469 290.262C348.128 290.827 348.379 290.45 348.411 288.912C348.411 287.719 348.474 287.593 349.196 287.593C349.949 287.593 349.98 287.688 350.074 289.853C350.137 291.36 350.326 292.208 350.64 292.49C350.891 292.679 351.142 292.804 351.205 292.741C351.236 292.679 351.895 291.706 352.649 290.607C353.684 289.037 353.873 288.566 353.559 288.347C353.245 288.158 352.962 288.284 352.649 288.755C352.397 289.131 351.927 289.728 351.644 290.073C351.11 290.701 351.079 290.67 351.142 288.975C351.173 287.876 351.048 286.997 350.796 286.683C350.231 286.024 348.787 286.055 348.191 286.714Z" fill="black"/>
<path d="M109.179 347.141C108.802 347.738 109.963 348.366 110.654 347.926C111.125 347.644 111.345 347.675 111.753 348.083C112.475 348.805 111.878 349.559 110.779 349.339C109.869 349.182 109.775 349.464 110.497 350.249C111.062 350.877 110.905 351.787 110.246 351.787C109.587 351.787 109.022 351.285 108.927 350.72C108.865 350.186 108.205 349.59 107.735 349.59C107.578 349.59 107.483 349.904 107.483 350.312C107.483 351.442 109.492 353.043 110.874 353.043C111.784 353.043 112.569 352.007 112.349 351.097C112.192 350.469 112.286 350.281 112.789 350.124C113.448 349.967 113.699 348.837 113.197 348.146C112.38 346.984 109.712 346.294 109.179 347.141Z" fill="black"/>
<path d="M114.703 350.69C113.542 351.882 113.605 352.071 115.111 352.573C115.865 352.793 116.147 353.107 116.21 353.703C116.273 354.237 116.116 354.613 115.802 354.739C115.174 354.959 114.076 354.425 114.076 353.891C114.076 353.672 113.793 353.326 113.448 353.107C112.914 352.793 112.789 352.793 112.632 353.169C112.192 354.3 114.107 355.869 115.896 355.869C116.964 355.869 117.843 355.022 117.843 354.017C117.843 353.264 116.461 351.788 115.708 351.788C115.331 351.788 115.331 351.694 115.645 351.317C115.99 350.909 116.21 350.972 117.372 351.663C118.219 352.165 118.816 352.322 118.941 352.102C119.035 351.945 119.067 351.663 118.941 351.506C118.816 351.286 116.053 349.591 115.833 349.591C115.802 349.591 115.3 350.093 114.703 350.69Z" fill="black"/>
<path d="M289.332 347.08L287.731 347.991L288.171 349.466C288.422 350.282 288.673 351.004 288.736 351.067C288.799 351.13 289.27 350.816 289.803 350.376C290.871 349.497 291.498 349.403 292.032 350.031C292.723 350.847 291.436 352.197 290.494 351.632C290.337 351.538 289.897 351.632 289.521 351.914L288.862 352.354L289.552 352.731C290.933 353.453 293.633 351.789 293.633 350.219C293.633 348.556 291.718 347.802 290.211 348.838C289.615 349.278 289.427 349.278 289.207 348.932C289.018 348.618 289.332 348.273 290.337 347.708C291.655 346.986 291.969 346.452 291.247 346.233C291.09 346.201 290.243 346.578 289.332 347.08Z" fill="black"/>
<path d="M284.373 349.717C282.929 350.345 282.207 351.318 282.458 352.26C282.646 352.95 282.74 353.013 283.274 352.731C283.619 352.542 283.902 352.071 283.902 351.632C283.902 351.161 284.122 350.816 284.53 350.69C285.974 350.219 286.193 351.475 285.001 353.358C284.247 354.551 283.933 356.184 284.467 356.184C284.938 356.184 288.924 353.955 288.924 353.672C288.924 353.044 288.297 353.076 287.198 353.704C286.57 354.08 286.005 354.3 285.911 354.237C285.848 354.143 286.131 353.453 286.57 352.699C287.512 351.035 287.543 350.722 286.727 349.905C286.005 349.183 285.66 349.152 284.373 349.717Z" fill="black"/>
<path d="M196.478 372.256C195.818 372.632 195.379 373.134 195.379 373.511C195.379 373.982 196.886 373.762 197.074 373.26C197.325 372.601 198.644 372.821 198.769 373.511C198.832 373.888 198.581 374.17 198.079 374.39C197.137 374.735 196.98 375.332 197.859 375.332C198.173 375.332 198.644 375.552 198.863 375.834C199.209 376.274 199.177 376.399 198.675 376.776C197.922 377.341 197.733 377.341 197.137 376.744C196.635 376.242 195.379 376.085 195.379 376.556C195.379 376.996 196.226 377.78 196.98 378C198.895 378.628 201.155 377.058 200.401 375.677C200.213 375.3 199.899 375.018 199.711 375.018C199.523 375.018 199.617 374.735 199.899 374.422C201.312 372.852 198.518 371.094 196.478 372.256Z" fill="black"/>
<path d="M202.662 372.192C201.72 372.569 201.249 373.919 201.437 375.614C201.845 379.287 206.68 378.784 206.68 375.08C206.68 373.573 206.303 372.82 205.393 372.349C204.388 371.816 203.698 371.784 202.662 372.192ZM204.733 373.197C205.33 373.793 205.204 376.493 204.577 376.869C203.572 377.435 202.913 376.713 202.913 375.08C202.913 373.605 203.289 372.82 204.011 372.82C204.2 372.82 204.514 372.977 204.733 373.197Z" fill="black"/>
<path d="M203.101 144.477C203.101 145.952 203.164 147.145 203.258 147.145L203.541 166.733C203.164 166.859 203.101 176.967 203.101 226.69V286.522V307.24H200.59V297.76V294.495V286.522V226.722V166.89V147.522V144.571C200.59 141.683 200.59 141.652 199.648 141.024L198.707 140.396V120.682V101H202.003H205.299V120.682V140.396L204.2 141.118L203.101 141.809V144.477Z" fill="black"/>
<path d="M205.621 187.987L204.617 187.359C204.052 187.014 197.711 183.498 190.554 179.543C172.629 169.623 151.283 157.632 134.928 148.34C126.735 143.663 120.897 140.524 120.426 140.524C119.515 140.524 119.327 141.246 120.018 142.125C120.237 142.376 124.004 145.327 128.399 148.685C142.368 159.296 193.41 198.535 195.199 200.041L222.815 208.643L205.621 187.987Z" fill="black"/>
<path d="M304.416 127.291C304.071 127.543 297.918 131.058 290.761 135.076C271.675 145.781 239.688 164.176 206.068 183.796C197.404 188.881 190.215 193.025 190.152 193.025L171.161 214.057L200.919 205.832C201.139 205.644 237.992 179.055 283.133 146.534C297.071 136.489 308.654 128.045 308.874 127.762C309.407 127.072 309.572 126.483 308.78 125.91C307.987 125.337 306.726 126.134 304.416 127.291Z" fill="black"/>
</svg>
